<?xml version="1.0" encoding="UTF-8" standalone="no"?>
<svg
   xmlns:dc="http://purl.org/dc/elements/1.1/"
   xmlns:cc="http://creativecommons.org/ns#"
   xmlns:rdf="http://www.w3.org/1999/02/22-rdf-syntax-ns#"
   xmlns:svg="http://www.w3.org/2000/svg"
   xmlns="http://www.w3.org/2000/svg"
   xmlns:sodipodi="http://sodipodi.sourceforge.net/DTD/sodipodi-0.dtd"
   xmlns:inkscape="http://www.inkscape.org/namespaces/inkscape"
   xml:space="preserve"
   enable-background="new 0 0 512 512"
   viewBox="0 0 512 512"
   height="512px"
   width="512px"
   y="0px"
   x="0px"
   id="Layer_1"
   version="1.1"
   inkscape:version="0.91 r13725"
   sodipodi:docname="gear15.svg"><sodipodi:namedview
     pagecolor="#ffffff"
     bordercolor="#666666"
     borderopacity="1"
     objecttolerance="10"
     gridtolerance="10"
     guidetolerance="10"
     inkscape:pageopacity="0"
     inkscape:pageshadow="2"
     inkscape:window-width="1920"
     inkscape:window-height="1139"
     id="namedview5360"
     showgrid="false"
     inkscape:zoom="7.375"
     inkscape:cx="-55.880335"
     inkscape:cy="508.93015"
     inkscape:window-x="0"
     inkscape:window-y="240"
     inkscape:window-maximized="1"
     inkscape:current-layer="Layer_1" /><metadata
     id="metadata9"><rdf:RDF><cc:Work
         rdf:about=""><dc:format>image/svg+xml</dc:format><dc:type
           rdf:resource="http://purl.org/dc/dcmitype/StillImage" /><dc:title /></cc:Work></rdf:RDF></metadata><defs
     id="defs7" /><path
     id="path3"
     d="m 62.48,55.350147 -0.944519,0 C 61.412327,54.876846 61.222408,54.42112 60.977775,54.007645 l 0.669909,-0.67152 c 0.203141,-0.203078 0.203141,-0.533095 0,-0.736172 L 60.544578,51.496467 C 60.341563,51.293389 60.012272,51.2932 59.809257,51.496278 l -0.673096,0.669878 C 58.722716,51.921523 58.26699,51.731445 57.793689,51.608387 l 0,-0.944551 c 0,-0.287167 -0.226521,-0.52 -0.513689,-0.52 l -1.56,0 c -0.287168,0 -0.513689,0.232833 -0.513689,0.52 l 0,0.944551 c -0.473301,0.123058 -0.929027,0.313041 -1.342502,0.557706 l -0.67152,-0.669941 c -0.203078,-0.203141 -0.533095,-0.203141 -0.736172,0 l -1.103486,1.103106 c -0.203078,0.203015 -0.203267,0.532306 -1.89e-4,0.735321 l 0.669878,0.673097 c -0.244696,0.413444 -0.434711,0.86917 -0.557769,1.342471 l -0.944551,0 c -0.287167,0 -0.52,0.226521 -0.52,0.513689 l 0,1.56 c 0,0.287199 0.232833,0.513689 0.52,0.513689 l 0.944551,0 c 0.123058,0.473301 0.313041,0.929027 0.557706,1.342502 l -0.670005,0.67152 c -0.203077,0.203015 -0.203077,0.533095 0,0.736078 l 1.103107,1.103517 c 0.203078,0.203141 0.532307,0.20333 0.735384,2.21e-4 l 0.673097,-0.669847 c 0.413444,0.244633 0.86917,0.434647 1.342471,0.557801 l 0,0.944519 c 0,0.287199 0.226521,0.52 0.513689,0.52 l 1.56,0 c 0.287199,0 0.513689,-0.232833 0.513689,-0.52 l 0,-0.944519 c 0.473301,-0.123154 0.929027,-0.313073 1.342502,-0.557706 l 0.67152,0.669909 c 0.203015,0.203141 0.533095,0.203141 0.736078,0 l 1.103517,-1.103106 c 0.203141,-0.203015 0.20333,-0.532306 2.21e-4,-0.735321 L 60.97768,59.279997 c 0.244633,-0.413445 0.434647,-0.869171 0.557801,-1.342472 l 0.944519,0 c 0.287199,0 0.52,-0.226521 0.52,-0.513689 l 0,-1.56 c 0,-0.287168 -0.232833,-0.513689 -0.52,-0.513689 z m -5.98,3.893689 c -1.435964,0 -2.6,-1.164068 -2.6,-2.6 0,-1.435964 1.164036,-2.6 2.6,-2.6 1.435964,0 2.6,1.164036 2.6,2.6 0,1.435964 -1.164036,2.6 -2.6,2.6 z" /><path
     id="path5902"
     d="m 9.0084765,0.0032163 q 1.8249645,0 3.4939395,0.7097539 1.668974,0.7096153 2.87781,1.918523 1.208839,1.2087707 1.91855,2.8777847 0.709702,1.6690155 0.709702,3.4939387 0,1.8249234 -0.709702,3.4939384 -0.709711,1.669015 -1.91855,2.877784 -1.208836,1.208907 -2.87781,1.918523 -1.668975,0.709754 -3.4939395,0.709754 -1.8249502,0 -3.493924,-0.709754 Q 3.8455651,16.583846 2.6367267,15.374939 1.4278885,14.16617 0.71819,12.497155 0.0084778,10.82814 0.0084778,9.0032166 0.0084778,7.1782934 0.71819,5.5092779 1.4278885,3.8402625 2.6367267,2.6314932 3.8455651,1.4225855 5.5145525,0.7129702 7.1835263,0.0032163 9.0084765,0.0032163 Z m 1.1698475,2.760786 -2.339681,0 q -0.1559905,0 -0.2729632,0.1176924 -0.117,0.1163076 -0.117,0.2730462 l 0,2.3395847 q 0,0.1560462 0.117,0.2730447 0.117,0.1176924 0.2729632,0.1176924 l 2.339681,0 q 0.155977,0 0.272963,-0.1176924 0.117,-0.1163076 0.117,-0.2730447 l 0,-2.3395847 q 0,-0.1560462 -0.117,-0.2730462 -0.117,-0.1176924 -0.272963,-0.1176924 z m 0,4.6794463 -3.8994777,0 q -0.1559772,0 -0.272963,0.1176924 -0.117,0.1163076 -0.117,0.2729078 l 0,0.7799524 q 0,0.1559078 0.117,0.2729078 0.117,0.1163076 0.272963,0.1163076 l 1.1698475,0 0,3.1195394 -1.1698475,0 q -0.1559772,0 -0.272963,0.117696 -0.117,0.116304 -0.117,0.273046 l 0,0.779815 q 0,0.156046 0.117,0.273046 0.117,0.116304 0.272963,0.116304 l 5.4592747,0 q 0.155977,0 0.272964,-0.116304 0.117,-0.116304 0.117,-0.273046 l 0,-0.779815 q 0,-0.156046 -0.117,-0.273046 -0.117,-0.117696 -0.272964,-0.117696 l -1.169848,0 0,-4.2893996 q 0,-0.1559078 -0.117,-0.2729078 -0.117,-0.1176924 -0.272963,-0.1176924 z"
     inkscape:connector-curvature="0" /></svg>